<?xml version="1.0" encoding="UTF-8" standalone="no"?>
<!DOCTYPE svg PUBLIC "-//W3C//DTD SVG 1.1//EN" "http://www.w3.org/Graphics/SVG/1.1/DTD/svg11.dtd">
<svg width="100%" height="100%" viewBox="0 0 800 800" version="1.1" xmlns="http://www.w3.org/2000/svg" xmlns:xlink="http://www.w3.org/1999/xlink" xml:space="preserve" xmlns:serif="http://www.serif.com/" style="fill-rule:evenodd;clip-rule:evenodd;stroke-linejoin:round;stroke-miterlimit:2;">
    <g transform="matrix(1.07941,0,0,1.07941,-31.7621,-25.834)">
        <g transform="matrix(0.926436,0,0,0.926436,29.4256,23.9336)">
            <path d="M50.296,563.697C25.358,512.419 11.372,454.877 11.372,394.094C11.372,179.619 185.511,5.492 400,5.492C614.489,5.492 788.628,179.619 788.628,394.094C788.628,455.284 774.454,513.19 749.209,564.712C738.443,493.583 667.581,420.754 549.745,382.838C551.566,370.047 554.109,359.444 552.786,343.029C568.563,338.941 588.852,327.247 607.269,315.136C620.204,306.63 646.1,242.761 654.478,202.964C654.911,200.739 654.157,198.449 652.488,196.915C650.818,195.381 648.472,194.824 646.292,195.443C621.132,202.803 568.515,234.371 549.465,264.632C548.779,265.825 547.457,266.503 546.088,266.366C544.718,266.228 543.558,265.299 543.123,263.994C532.946,232.991 521.864,199.285 493.839,179.147C470.102,162.09 431.37,149.899 400,149.784C368.63,149.669 329.47,161.318 305.616,178.459C277.591,198.597 266.509,232.303 256.332,263.305C255.897,264.611 254.737,265.54 253.367,265.677C251.998,265.815 250.676,265.136 249.99,263.943C230.94,233.683 178.323,202.115 153.163,194.755C150.983,194.136 148.637,194.693 146.967,196.227C145.298,197.76 144.544,200.051 144.977,202.276C153.356,242.073 179.252,305.941 192.186,314.447C210.603,326.559 230.893,338.253 246.669,342.341C245.346,358.755 247.889,369.359 249.71,382.15C132.055,420.007 61.23,492.67 50.296,563.697Z" style="fill:rgb(128,128,128);fill-opacity:0.93;"/>
        </g>
        <g>
            <path d="M424.986,282.38C424.35,281.582 424.186,280.507 424.555,279.555C424.924,278.604 425.77,277.92 426.778,277.76C440.75,275.527 481.255,269.064 492.818,267.219C493.614,267.092 494.427,267.314 495.047,267.829C495.667,268.345 496.035,269.102 496.056,269.908C496.166,279.271 494.779,306.306 475.264,310.572C454.173,315.182 432.705,291.859 424.986,282.38Z" style="fill:rgb(128,128,128);"/>
            <g transform="matrix(-1,0,0,1,798.99,-7.95808e-13)">
                <path d="M424.986,282.38C424.35,281.582 424.186,280.507 424.555,279.555C424.924,278.604 425.77,277.92 426.778,277.76C440.75,275.527 481.255,269.064 492.818,267.219C493.614,267.092 494.427,267.314 495.047,267.829C495.667,268.345 496.035,269.102 496.056,269.908C496.166,279.271 494.779,306.306 475.264,310.572C454.173,315.182 432.705,291.859 424.986,282.38Z" style="fill:rgb(128,128,128);"/>
            </g>
        </g>
        <g id="Layer2" transform="matrix(1,0,0,1,-0.504803,36.7788)">
            <g transform="matrix(1,0,0,1,1.49485,1.188)">
                <path d="M473.769,379.064C473.769,376.855 471.979,375.065 469.77,375.065C448.472,375.065 348.538,375.065 327.24,375.065C325.032,375.065 323.241,376.855 323.241,379.064C323.241,408.424 323.241,589.529 323.241,589.529L473.769,589.529L473.769,379.064Z" style="fill:rgb(227,227,227);"/>
            </g>
            <g transform="matrix(1,0,0,1,0.436609,1.71378)">
                <path d="M578.641,549.3L578.641,514.372C578.641,513.655 578.357,512.968 577.85,512.461C577.343,511.954 576.655,511.669 575.938,511.669C544.789,511.669 254.337,511.669 223.188,511.669C222.472,511.669 221.784,511.954 221.277,512.461C220.77,512.968 220.485,513.655 220.485,514.372C220.485,522.997 220.485,549.3 220.485,549.3C220.485,549.3 366.336,687.375 394.785,714.308C397.465,716.845 401.661,716.845 404.341,714.308L578.641,549.3Z" style="fill:rgb(227,227,227);"/>
            </g>
        </g>
    </g>
</svg>
